<svg id="Layer_1" enable-background="new 0 0 512 512" height="512" viewBox="0 0 512 512" width="512" xmlns="http://www.w3.org/2000/svg"><g><path d="m476.588 170.152-134.74-134.74c-47.216-47.216-124.479-47.216-171.695 0l-134.74 134.74c-47.216 47.216-47.216 124.479 0 171.695l134.74 134.74c47.216 47.216 124.479 47.216 171.695 0l134.74-134.74c47.216-47.216 47.216-124.478 0-171.695z" fill="#fe7d43"/><path d="m256 481.095c-24.269 0-46.995-9.362-63.994-26.36l-134.74-134.74c-16.998-16.999-26.36-39.725-26.36-63.994s9.362-46.995 26.36-63.994l134.74-134.74c16.999-16.998 39.725-26.36 63.994-26.36s46.995 9.362 63.994 26.36l134.74 134.74c16.998 16.998 26.36 39.725 26.36 63.994s-9.362 46.995-26.36 63.994l-134.74 134.74c-16.999 16.998-39.725 26.36-63.994 26.36z" fill="#ffd15b"/><g fill="#7a6d79"><path d="m196.307 219.384c0 .917-.306 1.808-.869 2.532l-25.083 32.212c-7.255 9.316-11.25 20.95-11.25 32.757v87.587c0 2.276 1.845 4.121 4.121 4.121h32.966c2.276 0 4.121-1.845 4.121-4.121v-90.329c0-.917.306-1.808.869-2.532l35.463-45.543c.563-.724.869-1.615.869-2.532v-96.006c0-2.276-1.845-4.121-4.121-4.121h-32.966c-2.276 0-4.121 1.845-4.121 4.121v81.854z"/><path d="m352.025 267.458-35.463-45.543c-.564-.724-.869-1.615-.869-2.532v-81.855c0-2.276-1.845-4.121-4.121-4.121h-32.966c-2.276 0-4.121 1.845-4.121 4.121v96.006c0 .917.306 1.808.869 2.532l35.463 45.542c.564.724.869 1.615.869 2.532v90.33c0 2.276 1.845 4.121 4.121 4.121h32.966c2.276 0 4.121-1.845 4.121-4.121v-104.48c.001-.917-.305-1.808-.869-2.532z"/></g><g><path d="m460.038 186.703-134.74-134.74c-18.416-18.416-43.027-28.558-69.298-28.558-26.272 0-50.882 10.142-69.297 28.557l-134.74 134.74c-18.416 18.416-28.558 43.027-28.558 69.298 0 26.272 10.142 50.882 28.557 69.297l134.74 134.74c18.416 18.416 43.026 28.557 69.298 28.557s50.882-10.142 69.297-28.557l134.74-134.74c18.416-18.416 28.557-43.026 28.557-69.298.001-26.271-10.141-50.881-28.556-69.296zm-10.607 127.988-134.74 134.74c-15.582 15.582-36.426 24.164-58.691 24.164s-43.109-8.582-58.691-24.164l-134.74-134.74c-15.582-15.582-24.164-36.426-24.164-58.691s8.582-43.109 24.164-58.691l134.74-134.74c15.582-15.582 36.426-24.164 58.691-24.164s43.109 8.582 58.691 24.164l134.74 134.74c15.582 15.582 24.164 36.426 24.164 58.691s-8.582 43.109-24.164 58.691z" fill="#eef5f6"/><g fill="#f6ab31"><path d="m256 50.705c-4.142 0-7.5 3.358-7.5 7.5v4.121c0 4.142 3.358 7.5 7.5 7.5s7.5-3.358 7.5-7.5v-4.121c0-4.142-3.358-7.5-7.5-7.5z"/><path d="m256 442.174c-4.142 0-7.5 3.358-7.5 7.5v4.121c0 4.142 3.358 7.5 7.5 7.5s7.5-3.358 7.5-7.5v-4.121c0-4.142-3.358-7.5-7.5-7.5z"/><path d="m453.795 248.5h-4.121c-4.142 0-7.5 3.358-7.5 7.5s3.358 7.5 7.5 7.5h4.121c4.142 0 7.5-3.358 7.5-7.5s-3.358-7.5-7.5-7.5z"/><path d="m62.326 248.5h-4.121c-4.142 0-7.5 3.358-7.5 7.5s3.358 7.5 7.5 7.5h4.121c4.142 0 7.5-3.358 7.5-7.5s-3.358-7.5-7.5-7.5z"/></g></g></g></svg>