<?xml version="1.0" encoding="utf-8"?>
<!-- Uploaded to: SVG Repo, www.svgrepo.com, Generator: SVG Repo Mixer Tools -->
<svg width="800px" height="800px" viewBox="0 -22 1068 1068" fill="#000000" class="icon"  version="1.1" xmlns="http://www.w3.org/2000/svg"><path d="M443.776196 795.968188a158.3078 158.3078 0 0 0-112.301381 74.438956 189.597879 189.597879 0 0 1 41.434352-100.728338 28.575415 28.575415 0 0 0-45.577787-34.433376 239.319101 239.319101 0 0 0-53.436026 145.877495 224.174131 224.174131 0 0 0 5.572206 47.720943 89.155295 89.155295 0 0 1-12.573183-20.860053 79.582531 79.582531 0 0 1 0-59.008232 28.575415 28.575415 0 0 0-52.864518-21.574439 136.018976 136.018976 0 0 0 0 102.871494 144.877355 144.877355 0 0 0 81.297056 78.868146 54.579043 54.579043 0 0 0 15.002093 2.286033 39.291196 39.291196 0 0 0 18.57402-4.429189 28.575415 28.575415 0 0 0 47.292312-29.861309 94.441747 94.441747 0 0 1 1.714525-72.581554 99.15669 99.15669 0 0 1 73.010185-51.721501 28.661141 28.661141 0 1 0-7.143854-56.865076zM590.082322 652.090973a100.013953 100.013953 0 0 1 73.010185-51.721502 28.804018 28.804018 0 0 0-7.286731-57.15083 158.3078 158.3078 0 0 0-112.301381 74.438956 189.740756 189.740756 0 0 1 41.434352-100.728338 28.575415 28.575415 0 1 0-45.577787-34.433375A239.604856 239.604856 0 0 0 485.924934 628.659132a224.031254 224.031254 0 0 0 5.572206 47.578066 89.155295 89.155295 0 0 1-12.573183-20.860053 79.1539 79.1539 0 0 1 0-59.008232 28.575415 28.575415 0 0 0-52.864518-21.717315 135.590345 135.590345 0 0 0 0 102.871494A144.734477 144.734477 0 0 0 507.213618 757.2485a54.293289 54.293289 0 0 0 15.002093 2.286033 39.291196 39.291196 0 0 0 18.57402-4.429189 28.575415 28.575415 0 0 0 47.292312-29.861309 94.441747 94.441747 0 0 1 2.000279-73.153062zM840.688712 803.969304a158.3078 158.3078 0 0 0-112.301381 74.438956 189.740756 189.740756 0 0 1 41.434352-100.728338 28.575415 28.575415 0 1 0-45.577787-34.433375 239.604856 239.604856 0 0 0-53.436027 145.877494 223.031115 223.031115 0 0 0 5.572206 47.578066 88.869541 88.869541 0 0 1-12.573182-20.717176 79.725408 79.725408 0 0 1 0-59.008232 28.618278 28.618278 0 1 0-53.007395-21.574439 136.161853 136.161853 0 0 0 0 102.871495 144.734477 144.734477 0 0 0 81.297056 78.868145 54.293289 54.293289 0 0 0 15.002093 2.286034 39.291196 39.291196 0 0 0 18.574019-4.42919 28.575415 28.575415 0 0 0 47.292312-29.861309 94.584624 94.584624 0 0 1 1.714525-72.581554 100.013953 100.013953 0 0 1 73.010186-51.721501 28.646854 28.646854 0 1 0-7.000977-56.865076zM912.413004 521.215571L828.687038 367.336961a105.729036 105.729036 0 0 0-92.870099-55.150551h-93.155853v85.726245h93.155853a20.145668 20.145668 0 0 1 17.716757 10.430027l83.725966 153.87861A263.465327 263.465327 0 0 0 1068.720525 700.09767v-85.726245a177.739082 177.739082 0 0 1-156.307521-93.155854zM1051.003767 345.9054L967.277801 192.026789a263.32245 263.32245 0 0 0-231.460862-137.590623h-93.155853v85.726245h93.155853a177.739082 177.739082 0 0 1 156.164643 92.870099l83.725966 153.87861a105.729036 105.729036 0 0 0 93.012977 55.150552v-85.726246a20.145668 20.145668 0 0 1-17.716758-10.430026zM519.929678 0h85.726245v439.775638h-85.726245zM28.575415 594.08288a28.575415 28.575415 0 0 0-28.575415 28.575415v71.438538a28.575415 28.575415 0 1 0 57.15083 0v-71.438538a28.575415 28.575415 0 0 0-28.575415-28.575415zM78.582392 260.179154a28.575415 28.575415 0 0 0 40.148458-4.714943 286.75429 286.75429 0 0 1 45.720664-45.863541 28.575415 28.575415 0 0 0-35.719269-44.577648 342.904981 342.904981 0 0 0-54.864797 55.150551 28.575415 28.575415 0 0 0 4.714944 40.005581zM28.575415 436.918097a28.575415 28.575415 0 0 0-28.575415 28.575415v71.438538a28.575415 28.575415 0 1 0 57.15083 0v-71.438538a28.575415 28.575415 0 0 0-28.575415-28.575415zM219.316311 171.452491a28.575415 28.575415 0 0 0 11.144412-2.286034 280.89633 280.89633 0 0 1 62.008651-18.145388 28.575415 28.575415 0 0 0-9.572765-56.293568 337.189898 337.189898 0 0 0-74.72471 21.860193 28.575415 28.575415 0 0 0 11.144412 54.864797zM373.194921 147.592019h70.152644a28.575415 28.575415 0 1 0 0-57.15083h-70.152644a28.575415 28.575415 0 0 0 0 57.15083zM63.294544 285.754151a28.575415 28.575415 0 0 0-37.433793 15.430724 338.904423 338.904423 0 0 0-21.431562 74.867588 28.575415 28.575415 0 0 0 23.574718 32.861727h4.714943a28.575415 28.575415 0 0 0 28.575415-23.860472 280.467699 280.467699 0 0 1 17.859635-62.151527A28.575415 28.575415 0 0 0 63.294544 285.754151zM237.318822 273.180968a187.168969 187.168969 0 0 1 57.150831-25.003488 28.575415 28.575415 0 0 0-14.287708-55.293428 243.891168 243.891168 0 0 0-73.724571 32.575973 28.575415 28.575415 0 0 0 30.861448 47.720943zM371.909027 242.891028h71.438538a28.575415 28.575415 0 0 0 0-57.15083h-71.438538a28.575415 28.575415 0 1 0 0 57.15083zM123.302916 587.22478a28.575415 28.575415 0 0 0-28.575415 28.575415v71.438538a28.575415 28.575415 0 0 0 57.15083 0v-71.438538a28.575415 28.575415 0 0 0-28.575415-28.575415zM123.302916 430.059997a28.575415 28.575415 0 0 0-28.575415 28.575415v71.438538a28.575415 28.575415 0 0 0 57.15083 0v-71.438538a28.575415 28.575415 0 0 0-28.575415-28.575415zM177.024697 285.754151a28.575415 28.575415 0 0 0-39.719827 7.572485 244.605553 244.605553 0 0 0-33.861867 73.010186 28.589703 28.589703 0 1 0 55.150551 15.14497 187.311846 187.311846 0 0 1 25.86075-56.007814 28.575415 28.575415 0 0 0-7.429607-39.719827zM371.909027 337.189898h71.438538a28.575415 28.575415 0 0 0 0-57.15083h-71.438538a28.575415 28.575415 0 1 0 0 57.15083zM246.748709 678.951863v-71.438538a28.575415 28.575415 0 0 0-57.15083 0v71.438538a28.575415 28.575415 0 0 0 57.15083 0zM218.173294 550.362495a28.575415 28.575415 0 0 0 28.575415-28.575415v-71.438538a28.575415 28.575415 0 0 0-57.15083 0v71.438538a28.575415 28.575415 0 0 0 28.575415 28.575415zM221.459467 392.340449a28.575415 28.575415 0 0 0 39.291196-9.572764 94.441747 94.441747 0 0 1 40.005581-36.290777 28.575415 28.575415 0 1 0-24.574857-51.578624 151.4497 151.4497 0 0 0-64.294684 58.293847 28.575415 28.575415 0 0 0 9.572764 39.148318z" /></svg>